<?xml version="1.0" encoding="utf-8"?>
<svg xmlns="http://www.w3.org/2000/svg" viewBox="0,0,50,50" enable-background="new 0 0 50 50">
	<path style="fill:white;text-indent:0;text-align:start;line-height:normal;text-transform:none;block-progression:tb;-inkscape-font-specification:Bitstream Vera Sans" d="M 24.875 0 A 1.0001 1.0001 0 0 0 24.03125 0.71875 L 19.84375 14.3125 L 11 9.625 A 1.0001 1.0001 0 0 0 10.3125 9.53125 A 1.0001 1.0001 0 0 0 9.625 11 L 14.3125 19.84375 L 0.71875 24.03125 A 1.0001 1.0001 0 0 0 0.71875 25.96875 L 14.3125 30.15625 L 9.625 39 A 1.0001 1.0001 0 0 0 11 40.375 L 19.84375 35.6875 L 24.03125 49.28125 A 1.0001 1.0001 0 0 0 25.96875 49.28125 L 30.15625 35.6875 L 39 40.375 A 1.0001 1.0001 0 0 0 40.375 39 L 35.6875 30.15625 L 49.28125 25.96875 A 1.0001 1.0001 0 0 0 49.28125 24.03125 L 35.6875 19.84375 L 40.375 11 A 1.0001 1.0001 0 0 0 39.34375 9.53125 A 1.0001 1.0001 0 0 0 39 9.625 L 30.15625 14.3125 L 25.96875 0.71875 A 1.0001 1.0001 0 0 0 24.875 0 z M 24 7.65625 L 24 22.59375 L 20.46875 19.0625 L 21.34375 16.21875 A 1.0064489 1.0064489 0 0 0 21.40625 16.03125 L 24 7.65625 z M 26 7.6875 L 28.59375 16.0625 L 29.53125 19.0625 L 26 22.59375 L 26 7.6875 z M 12.90625 12.90625 L 19.21875 16.25 L 18.53125 18.53125 L 16.25 19.21875 L 12.90625 12.90625 z M 37.09375 12.90625 L 33.75 19.21875 L 31.46875 18.53125 L 30.78125 16.25 L 37.09375 12.90625 z M 19.0625 20.46875 L 22.59375 24 L 7.6875 24 L 16.0625 21.40625 L 19.0625 20.46875 z M 30.9375 20.46875 L 33.78125 21.34375 A 1.0064489 1.0064489 0 0 0 33.875 21.375 L 33.96875 21.40625 L 42.34375 24 L 27.40625 24 L 30.9375 20.46875 z M 7.6875 26 L 22.59375 26 L 19.0625 29.53125 L 16.34375 28.6875 A 1.0001 1.0001 0 0 0 16 28.5625 L 7.6875 26 z M 27.40625 26 L 42.34375 26 L 34.125 28.53125 A 1.0001 1.0001 0 0 0 34.03125 28.53125 A 1.0001 1.0001 0 0 0 33.6875 28.65625 L 30.9375 29.53125 L 27.40625 26 z M 24 27.40625 L 24 42.3125 L 20.46875 30.9375 L 24 27.40625 z M 26 27.40625 L 29.53125 30.9375 L 28.65625 33.78125 A 1.0064489 1.0064489 0 0 0 28.59375 33.96875 L 26 42.34375 L 26 27.40625 z M 16.25 30.78125 L 18.53125 31.46875 L 19.21875 33.75 L 12.90625 37.09375 L 16.25 30.78125 z M 33.75 30.78125 L 37.09375 37.09375 L 30.78125 33.75 L 31.46875 31.46875 L 33.75 30.78125 z"></path>
</svg>