<?xml version="1.0" encoding="utf-8"?>
<svg xmlns="http://www.w3.org/2000/svg" viewBox="0,0,50,50" enable-background="new 0 0 50 50">
	<path style="fill:white;text-indent:0;text-align:start;line-height:normal;text-transform:none;block-progression:tb;-inkscape-font-specification:Bitstream Vera Sans" d="M 23.90625 3.96875 A 1.0001 1.0001 0 0 0 23.78125 4 A 1.0001 1.0001 0 0 0 23 5 L 23 11 A 1.0001 1.0001 0 1 0 25 11 L 25 5 A 1.0001 1.0001 0 0 0 23.90625 3.96875 z M 9.65625 9.84375 A 1.0001 1.0001 0 0 0 9.15625 11.5625 L 13.40625 15.8125 A 1.0001 1.0001 0 1 0 14.8125 14.40625 L 10.5625 10.15625 A 1.0001 1.0001 0 0 0 9.75 9.84375 A 1.0001 1.0001 0 0 0 9.65625 9.84375 z M 38.03125 9.84375 A 1.0001 1.0001 0 0 0 37.4375 10.15625 L 33.1875 14.40625 A 1.0001 1.0001 0 1 0 34.59375 15.8125 L 38.84375 11.5625 A 1.0001 1.0001 0 0 0 38.03125 9.84375 z M 23.90625 15 A 1.0001 1.0001 0 0 0 23.8125 15.03125 C 23.77002 15.032071 23.72985 15.02985 23.6875 15.03125 A 1.0001 1.0001 0 0 0 23.625 15.0625 C 20.319077 15.19033 17.381365 16.877871 15.65625 19.46875 A 1.0140613 1.0140613 0 1 0 17.34375 20.59375 C 18.768024 18.454692 21.180651 17.021692 23.9375 17 A 1.0001 1.0001 0 0 0 24 17 A 1.0001 1.0001 0 0 0 24.09375 17 C 28.470271 17.051126 32 20.612261 32 25 C 32 28.194106 30.109047 30.933988 27.40625 32.21875 A 1.0063276 1.0063276 0 0 0 28.28125 34.03125 C 31.662453 32.424012 34 28.977894 34 25 C 34 19.662023 29.745362 15.354268 24.46875 15.09375 A 1.0001 1.0001 0 0 0 24.375 15.0625 A 1.0001 1.0001 0 0 0 24.0625 15 C 24.0412 14.999865 24.02133 15 24 15 A 1.0001 1.0001 0 0 0 23.90625 15 z M 5.71875 23 A 1.0043849 1.0043849 0 0 0 6 25 L 21 25 A 1.0001 1.0001 0 1 0 21 23 L 6 23 A 1.0001 1.0001 0 0 0 5.90625 23 A 1.001098 1.001098 0 0 0 5.8125 23 A 1.0043849 1.0043849 0 0 0 5.71875 23 z M 37.71875 24 A 1.0043849 1.0043849 0 0 0 38 26 L 44 26 A 1.0001 1.0001 0 1 0 44 24 L 38 24 A 1.0001 1.0001 0 0 0 37.90625 24 A 1.001098 1.001098 0 0 0 37.8125 24 A 1.0043849 1.0043849 0 0 0 37.71875 24 z M 10.71875 29 A 1.0043849 1.0043849 0 0 0 11 31 L 26 31 A 1.0001 1.0001 0 1 0 26 29 L 11 29 A 1.0001 1.0001 0 0 0 10.90625 29 A 1.001098 1.001098 0 0 0 10.8125 29 A 1.0043849 1.0043849 0 0 0 10.71875 29 z M 33.6875 33.875 A 1.0001 1.0001 0 0 0 33.1875 35.59375 L 37.4375 39.84375 A 1.0001 1.0001 0 1 0 38.84375 38.4375 L 34.59375 34.1875 A 1.0001 1.0001 0 0 0 33.875 33.875 A 1.0001 1.0001 0 0 0 33.78125 33.875 A 1.0001 1.0001 0 0 0 33.6875 33.875 z M 5.71875 35 A 1.0043849 1.0043849 0 0 0 6 37 L 21 37 A 1.0001 1.0001 0 1 0 21 35 L 6 35 A 1.0001 1.0001 0 0 0 5.90625 35 A 1.001098 1.001098 0 0 0 5.8125 35 A 1.0043849 1.0043849 0 0 0 5.71875 35 z M 23.90625 37.96875 A 1.0001 1.0001 0 0 0 23.78125 38 A 1.0001 1.0001 0 0 0 23 39 L 23 45 A 1.0001 1.0001 0 1 0 25 45 L 25 39 A 1.0001 1.0001 0 0 0 23.90625 37.96875 z"></path>
</svg>