<?xml version="1.0" encoding="utf-8"?>
<svg xmlns="http://www.w3.org/2000/svg" viewBox="0,0,50,50" enable-background="new 0 0 50 50">
	<path style="fill:white;text-indent:0;text-align:start;line-height:normal;text-transform:none;block-progression:tb;-inkscape-font-specification:Bitstream Vera Sans" d="M 22.5 6 C 16.712628 6 12 10.712628 12 16.5 C 12 16.672664 12.02189 16.831473 12.03125 17 C 12.02044 16.999948 12.01084 17 12 17 C 7.593562 17 4 20.593562 4 25 C 4 29.406438 7.593562 33 12 33 L 27 33 L 36 33 C 41.511334 33 46 28.511334 46 23 C 46 17.488666 41.511334 13 36 13 C 34.746738 13 33.573364 13.296292 32.46875 13.71875 C 31.232227 9.2969348 27.307304 6 22.5 6 z M 27 33 L 25.40625 34.1875 L 21.40625 37.1875 L 21 37.5 L 21 38 L 21 43 L 21 45 L 22.59375 43.8125 L 26.59375 40.8125 L 27 40.5 L 27 40 L 27 35 L 27 33 z M 22.5 8 C 26.749468 8 30.233383 11.097149 30.875 15.15625 L 31.09375 16.53125 L 32.34375 15.90625 C 33.447267 15.335773 34.674653 15 36 15 C 40.430666 15 44 18.569334 44 23 C 44 27.430666 40.430666 31 36 31 L 12 31 C 8.674438 31 6 28.325562 6 25 C 6 21.674438 8.674438 19 12 19 C 12.322799 19 12.634389 19.03832 12.96875 19.09375 L 14.375 19.3125 L 14.125 17.9375 C 14.043066 17.456944 14 16.97753 14 16.5 C 14 11.793372 17.793372 8 22.5 8 z M 25 37 L 25 39.5 L 23 41 L 23 38.5 L 25 37 z M 14 38 L 12.40625 39.1875 L 8.40625 42.1875 L 8 42.5 L 8 43 L 8 48 L 8 50 L 9.59375 48.8125 L 13.59375 45.8125 L 14 45.5 L 14 45 L 14 40 L 14 38 z M 37 38 L 35.40625 39.1875 L 31.40625 42.1875 L 31 42.5 L 31 43 L 31 48 L 31 50 L 32.59375 48.8125 L 36.59375 45.8125 L 37 45.5 L 37 45 L 37 40 L 37 38 z M 12 42 L 12 44.5 L 10 46 L 10 43.5 L 12 42 z M 35 42 L 35 44.5 L 33 46 L 33 43.5 L 35 42 z" color="#000" overflow="visible" enable-background="accumulate" font-family="Bitstream Vera Sans"></path>
</svg>