<?xml version="1.0" encoding="utf-8"?>
<svg xmlns="http://www.w3.org/2000/svg" viewBox="0,0,50,50" enable-background="new 0 0 50 50">
	<path style="fill:white;text-indent:0;text-align:start;line-height:normal;text-transform:none;block-progression:tb;-inkscape-font-specification:Bitstream Vera Sans" d="M 22.5 6 C 16.713525 6 12 10.712501 12 16.5 C 12 16.672664 12.02189 16.831473 12.03125 17 C 12.02044 16.999948 12.01084 17 12 17 C 7.593562 17 4 20.593562 4 25 C 4 29.406438 7.593562 33 12 33 L 36 33 C 41.511334 33 46 28.511334 46 23 C 46 17.488666 41.511334 13 36 13 C 34.746738 13 33.573364 13.296292 32.46875 13.71875 C 31.232227 9.2969348 27.307304 6 22.5 6 z M 22.5 8 C 26.749468 8 30.233383 11.097149 30.875 15.15625 L 31.09375 16.53125 L 32.34375 15.90625 C 33.447267 15.335773 34.674653 15 36 15 C 40.430666 15 44 18.569334 44 23 C 44 27.430666 40.430666 31 36 31 L 12 31 C 8.674438 31 6 28.325562 6 25 C 6 21.674438 8.674438 19 12 19 C 12.322799 19 12.632722 19.03819 12.96875 19.09375 L 14.375 19.3125 L 14.125 17.9375 C 14.043066 17.456944 14 16.97753 14 16.5 C 14 11.793499 17.794475 8 22.5 8 z M 13.0625 34.96875 A 1.0001 1.0001 0 0 0 12.96875 35 A 1.0001 1.0001 0 0 0 12.25 36.375 L 12.6875 37.46875 L 11.625 37.90625 A 1.0001 1.0001 0 1 0 12.375 39.75 L 13.46875 39.3125 L 13.90625 40.375 A 1.0001 1.0001 0 1 0 15.75 39.625 L 15.3125 38.53125 L 16.375 38.09375 A 1.0001 1.0001 0 0 0 15.96875 36.15625 A 1.0001 1.0001 0 0 0 15.625 36.25 L 14.53125 36.6875 L 14.09375 35.625 A 1.0001 1.0001 0 0 0 13.15625 34.96875 A 1.0001 1.0001 0 0 0 13.0625 34.96875 z M 32.0625 36.96875 A 1.0001 1.0001 0 0 0 31.96875 37 A 1.0001 1.0001 0 0 0 31.25 38.375 L 31.6875 39.46875 L 30.625 39.90625 A 1.0001 1.0001 0 1 0 31.375 41.75 L 32.46875 41.3125 L 32.90625 42.375 A 1.0001 1.0001 0 1 0 34.75 41.625 L 34.3125 40.53125 L 35.375 40.09375 A 1.0001 1.0001 0 0 0 34.96875 38.15625 A 1.0001 1.0001 0 0 0 34.875 38.15625 A 1.0001 1.0001 0 0 0 34.625 38.25 L 33.53125 38.6875 L 33.09375 37.625 A 1.0001 1.0001 0 0 0 32.15625 36.96875 A 1.0001 1.0001 0 0 0 32.0625 36.96875 z M 22.0625 41.96875 A 1.0001 1.0001 0 0 0 21.96875 42 A 1.0001 1.0001 0 0 0 21.25 43.375 L 21.6875 44.46875 L 20.625 44.90625 A 1.0001 1.0001 0 1 0 21.375 46.75 L 22.46875 46.3125 L 22.90625 47.375 A 1.0001 1.0001 0 1 0 24.75 46.625 L 24.3125 45.53125 L 25.375 45.09375 A 1.0001 1.0001 0 0 0 24.96875 43.15625 A 1.0001 1.0001 0 0 0 24.625 43.25 L 23.53125 43.6875 L 23.09375 42.625 A 1.0001 1.0001 0 0 0 22.15625 41.96875 A 1.0001 1.0001 0 0 0 22.0625 41.96875 z"></path>
</svg>