<?xml version="1.0" encoding="utf-8"?>
<svg xmlns="http://www.w3.org/2000/svg" viewBox="0,0,50,50" enable-background="new 0 0 50 50">
	<path style="fill:white;text-indent:0;text-align:start;line-height:normal;text-transform:none;block-progression:tb;-inkscape-font-specification:Bitstream Vera Sans" d="M 22.5 5 C 16.713525 5 12 9.7125007 12 15.5 C 12 15.672664 12.02189 15.831473 12.03125 16 C 12.02044 15.999948 12.01084 16 12 16 C 7.593562 16 4 19.593562 4 24 C 4 28.406438 7.593562 32 12 32 A 1.0001 1.0001 0 1 0 12 30 C 8.674438 30 6 27.325562 6 24 C 6 20.674438 8.674438 18 12 18 C 12.322799 18 12.632722 18.03819 12.96875 18.09375 L 14.375 18.3125 L 14.125 16.9375 C 14.043066 16.456944 14 15.97753 14 15.5 C 14 10.793499 17.794475 7 22.5 7 C 26.749468 7 30.233383 10.097149 30.875 14.15625 L 31.09375 15.53125 L 32.34375 14.90625 C 33.447267 14.335773 34.674653 14 36 14 C 40.430666 14 44 17.569334 44 22 C 44 26.430666 40.430666 30 36 30 A 1.0001 1.0001 0 1 0 36 32 C 41.511334 32 46 27.511334 46 22 C 46 16.488666 41.511334 12 36 12 C 34.746738 12 33.573364 12.296292 32.46875 12.71875 C 31.232227 8.2969348 27.307304 5 22.5 5 z M 23.90625 17.96875 A 1.0001 1.0001 0 0 0 23.78125 18 A 1.0001 1.0001 0 0 0 23 19 L 23 20 L 22.5 20 A 1.0001 1.0001 0 0 0 22.40625 20 A 1.001098 1.001098 0 0 0 22.5 22 L 23 22 L 23 25.25 L 20.15625 23.625 L 20.40625 23.1875 A 1.0001 1.0001 0 0 0 19.46875 21.6875 A 1.0001 1.0001 0 0 0 18.6875 22.1875 L 18.4375 22.625 L 17.5625 22.125 A 1.0001 1.0001 0 0 0 16.90625 22 A 1.0001 1.0001 0 0 0 16.5625 23.875 L 17.4375 24.375 L 17.1875 24.8125 A 1.0001 1.0001 0 1 0 18.90625 25.8125 L 19.15625 25.375 L 21.96875 27 L 19.15625 28.625 L 18.90625 28.1875 A 1.0001 1.0001 0 0 0 17.90625 27.6875 A 1.0001 1.0001 0 0 0 17.1875 29.1875 L 17.4375 29.625 L 16.5625 30.125 A 1.0077822 1.0077822 0 0 0 17.5625 31.875 L 18.4375 31.375 L 18.6875 31.8125 A 1.0001 1.0001 0 1 0 20.40625 30.8125 L 20.15625 30.375 L 23 28.75 L 23 32 L 22.5 32 A 1.0001 1.0001 0 0 0 22.40625 32 A 1.001098 1.001098 0 0 0 22.5 34 L 23 34 L 23 35 A 1.0001 1.0001 0 1 0 25 35 L 25 34 L 25.5 34 A 1.0001 1.0001 0 1 0 25.5 32 L 25 32 L 25 28.75 L 27.84375 30.375 L 27.59375 30.8125 A 1.0001 1.0001 0 1 0 29.3125 31.8125 L 29.5625 31.375 L 30.4375 31.875 A 1.0077822 1.0077822 0 0 0 31.4375 30.125 L 30.5625 29.625 L 30.8125 29.1875 A 1.0001 1.0001 0 0 0 29.875 27.6875 A 1.0001 1.0001 0 0 0 29.09375 28.1875 L 28.84375 28.625 L 26.03125 27 L 28.84375 25.375 L 29.09375 25.8125 A 1.0001 1.0001 0 1 0 30.8125 24.8125 L 30.5625 24.375 L 31.4375 23.875 A 1.0001 1.0001 0 0 0 30.78125 22 A 1.0001 1.0001 0 0 0 30.4375 22.125 L 29.5625 22.625 L 29.3125 22.1875 A 1.0001 1.0001 0 0 0 28.3125 21.6875 A 1.0001 1.0001 0 0 0 27.59375 23.1875 L 27.84375 23.625 L 25 25.25 L 25 22 L 25.5 22 A 1.0001 1.0001 0 1 0 25.5 20 L 25 20 L 25 19 A 1.0001 1.0001 0 0 0 23.90625 17.96875 z M 40.15625 33.96875 A 1.0001 1.0001 0 0 0 39.96875 34 A 1.0001 1.0001 0 0 0 39.25 35.375 L 39.6875 36.46875 L 38.625 36.90625 A 1.0001 1.0001 0 1 0 39.375 38.75 L 40.46875 38.3125 L 40.90625 39.375 A 1.0001 1.0001 0 1 0 42.75 38.625 L 42.3125 37.53125 L 43.375 37.09375 A 1.0001 1.0001 0 0 0 42.96875 35.15625 A 1.0001 1.0001 0 0 0 42.625 35.25 L 41.53125 35.6875 L 41.09375 34.625 A 1.0001 1.0001 0 0 0 40.15625 33.96875 z M 8.15625 34.96875 A 1.0001 1.0001 0 0 0 7.96875 35 A 1.0001 1.0001 0 0 0 7.25 36.375 L 7.6875 37.46875 L 6.625 37.90625 A 1.0001 1.0001 0 1 0 7.375 39.75 L 8.46875 39.3125 L 8.90625 40.375 A 1.0001 1.0001 0 1 0 10.75 39.625 L 10.3125 38.53125 L 11.375 38.09375 A 1.0001 1.0001 0 0 0 10.96875 36.15625 A 1.0001 1.0001 0 0 0 10.625 36.25 L 9.53125 36.6875 L 9.09375 35.625 A 1.0001 1.0001 0 0 0 8.15625 34.96875 z M 25.15625 38.96875 A 1.0001 1.0001 0 0 0 24.96875 39 A 1.0001 1.0001 0 0 0 24.25 40.375 L 24.6875 41.46875 L 23.625 41.90625 A 1.0001 1.0001 0 1 0 24.375 43.75 L 25.46875 43.3125 L 25.90625 44.375 A 1.0001 1.0001 0 1 0 27.75 43.625 L 27.3125 42.53125 L 28.375 42.09375 A 1.0001 1.0001 0 0 0 27.96875 40.15625 A 1.0001 1.0001 0 0 0 27.625 40.25 L 26.53125 40.6875 L 26.09375 39.625 A 1.0001 1.0001 0 0 0 25.15625 38.96875 z M 15.15625 42.96875 A 1.0001 1.0001 0 0 0 14.96875 43 A 1.0001 1.0001 0 0 0 14.25 44.375 L 14.6875 45.46875 L 13.625 45.90625 A 1.0001 1.0001 0 1 0 14.375 47.75 L 15.46875 47.3125 L 15.90625 48.375 A 1.0001 1.0001 0 1 0 17.75 47.625 L 17.3125 46.53125 L 18.375 46.09375 A 1.0001 1.0001 0 0 0 17.96875 44.15625 A 1.0001 1.0001 0 0 0 17.625 44.25 L 16.53125 44.6875 L 16.09375 43.625 A 1.0001 1.0001 0 0 0 15.15625 42.96875 z M 35.15625 42.96875 A 1.0001 1.0001 0 0 0 34.96875 43 A 1.0001 1.0001 0 0 0 34.25 44.375 L 34.6875 45.46875 L 33.625 45.90625 A 1.0001 1.0001 0 1 0 34.375 47.75 L 35.46875 47.3125 L 35.90625 48.375 A 1.0001 1.0001 0 1 0 37.75 47.625 L 37.3125 46.53125 L 38.375 46.09375 A 1.0001 1.0001 0 0 0 37.96875 44.15625 A 1.0001 1.0001 0 0 0 37.625 44.25 L 36.53125 44.6875 L 36.09375 43.625 A 1.0001 1.0001 0 0 0 35.15625 42.96875 z"></path>
</svg>