<?xml version="1.0" encoding="utf-8"?>
<svg xmlns="http://www.w3.org/2000/svg" viewBox="0,0,50,50" enable-background="new 0 0 50 50">
	<path style="fill:white;text-indent:0;text-align:start;line-height:normal;text-transform:none;block-progression:tb;-inkscape-font-specification:Bitstream Vera Sans" d="M 16.90625 1.96875 A 1.0001 1.0001 0 0 0 16.78125 2 A 1.0001 1.0001 0 0 0 16 3 L 16 8 A 1.0001 1.0001 0 1 0 18 8 L 18 3 A 1.0001 1.0001 0 0 0 16.90625 1.96875 z M 5.59375 6.65625 A 1.0001 1.0001 0 0 0 5.46875 6.6875 A 1.0001 1.0001 0 0 0 4.96875 8.40625 L 8.53125 11.9375 A 1.0054782 1.0054782 0 1 0 9.9375 10.5 L 6.40625 6.96875 A 1.0001 1.0001 0 0 0 5.59375 6.65625 z M 28.21875 6.65625 A 1.0001 1.0001 0 0 0 28.09375 6.6875 A 1.0001 1.0001 0 0 0 27.59375 6.96875 L 24.0625 10.5 A 1.016466 1.016466 0 1 0 25.5 11.9375 L 29.03125 8.40625 A 1.0001 1.0001 0 0 0 28.21875 6.65625 z M 16.90625 11 A 1.0001 1.0001 0 0 0 16.8125 11.03125 A 1.0001 1.0001 0 0 0 16.625 11.0625 A 1.0001 1.0001 0 0 0 16.59375 11.09375 C 12.391509 11.320589 9 14.744508 9 19 C 9 21.964782 10.618667 24.558065 13.03125 25.9375 A 1.0001 1.0001 0 1 0 14.03125 24.21875 C 12.221833 23.184185 11 21.233218 11 19 C 11 15.70602 13.650698 13.034116 16.9375 13 A 1.0001 1.0001 0 0 0 17 13 A 1.0001 1.0001 0 0 0 17.09375 13 C 18.541478 13.02281 19.847935 13.560757 20.875 14.4375 A 1.0083877 1.0083877 0 1 0 22.1875 12.90625 C 20.908131 11.814131 19.250662 11.202908 17.46875 11.09375 A 1.0001 1.0001 0 0 0 17.375 11.0625 A 1.0001 1.0001 0 0 0 17.0625 11 C 17.04129 10.999833 17.02124 11 17 11 A 1.0001 1.0001 0 0 0 16.90625 11 z M 29 14 C 23.488666 14 19 18.488666 19 24 C 19 24.408179 19.07587 24.794885 19.125 25.1875 C 15.701198 25.639128 13 28.456824 13 32 C 13 35.853698 16.146302 39 20 39 L 41 39 C 45.958516 39 50 34.958516 50 30 C 50 25.041484 45.958516 21 41 21 C 40.125743 21 39.332972 21.266318 38.53125 21.5 C 37.402593 17.214486 33.631351 14 29 14 z M 29 16 C 33.013917 16 36.317661 18.942083 36.90625 22.78125 L 37.09375 24.0625 L 38.28125 23.5625 C 39.117664 23.208532 40.030143 23 41 23 C 44.877484 23 48 26.122516 48 30 C 48 33.877484 44.877484 37 41 37 L 20 37 C 17.227698 37 15 34.772302 15 32 C 15 29.227698 17.227698 27 20 27 C 20.0031 27 20.058 26.995 20.1875 27 L 21.5 27.0625 L 21.21875 25.78125 C 21.084972 25.199452 21 24.610112 21 24 C 21 19.569334 24.569334 16 29 16 z M 0.71875 18 A 1.0043849 1.0043849 0 0 0 1 20 L 6 20 A 1.0001 1.0001 0 1 0 6 18 L 1 18 A 1.0001 1.0001 0 0 0 0.90625 18 A 1.001098 1.001098 0 0 0 0.8125 18 A 1.0043849 1.0043849 0 0 0 0.71875 18 z M 9.125 25.75 A 1.0001 1.0001 0 0 0 9 25.78125 A 1.0001 1.0001 0 0 0 8.53125 26.0625 L 4.96875 29.59375 A 1.016466 1.016466 0 1 0 6.40625 31.03125 L 9.9375 27.46875 A 1.0001 1.0001 0 0 0 9.125 25.75 z M 21.875 41 A 1.0001 1.0001 0 0 0 21.28125 41.28125 L 19.28125 43.28125 A 1.016466 1.016466 0 1 0 20.71875 44.71875 L 22.71875 42.71875 A 1.0001 1.0001 0 0 0 21.875 41 z M 40.875 41 A 1.0001 1.0001 0 0 0 40.28125 41.28125 L 38.28125 43.28125 A 1.016466 1.016466 0 1 0 39.71875 44.71875 L 41.71875 42.71875 A 1.0001 1.0001 0 0 0 40.875 41 z M 30.875 45 A 1.0001 1.0001 0 0 0 30.28125 45.28125 L 28.28125 47.28125 A 1.016466 1.016466 0 1 0 29.71875 48.71875 L 31.71875 46.71875 A 1.0001 1.0001 0 0 0 30.875 45 z"></path>
</svg>