<?xml version="1.0" encoding="utf-8"?>
<svg xmlns="http://www.w3.org/2000/svg" viewBox="0,0,50,50" enable-background="new 0 0 50 50">
	<path style="fill:white;text-indent:0;text-align:start;line-height:normal;text-transform:none;block-progression:tb;-inkscape-font-specification:Bitstream Vera Sans" d="M 16.90625 3.96875 A 1.0001 1.0001 0 0 0 16.78125 4 A 1.0001 1.0001 0 0 0 16 5 L 16 10 A 1.0001 1.0001 0 1 0 18 10 L 18 5 A 1.0001 1.0001 0 0 0 16.90625 3.96875 z M 5.59375 8.65625 A 1.0001 1.0001 0 0 0 5.46875 8.6875 A 1.0001 1.0001 0 0 0 4.96875 10.40625 L 8.5 13.9375 A 1.016466 1.016466 0 1 0 9.9375 12.5 L 6.40625 8.96875 A 1.0001 1.0001 0 0 0 5.59375 8.65625 z M 28.21875 8.65625 A 1.0001 1.0001 0 0 0 28.09375 8.6875 A 1.0001 1.0001 0 0 0 27.59375 8.96875 L 24.0625 12.5 A 1.016466 1.016466 0 1 0 25.5 13.9375 L 29.03125 10.40625 A 1.0001 1.0001 0 0 0 28.21875 8.65625 z M 16.90625 13 A 1.0001 1.0001 0 0 0 16.8125 13.03125 A 1.0001 1.0001 0 0 0 16.625 13.0625 A 1.0001 1.0001 0 0 0 16.59375 13.09375 C 12.391509 13.320589 9 16.744508 9 21 C 9 23.964782 10.618667 26.558065 13.03125 27.9375 A 1.0001 1.0001 0 1 0 14.03125 26.21875 C 12.221833 25.184185 11 23.233218 11 21 C 11 17.70602 13.650698 15.034116 16.9375 15 A 1.0001 1.0001 0 0 0 17 15 C 17.03223 15 17.06165 14.999494 17.09375 15 C 18.541482 15.02281 19.846733 15.560449 20.875 16.4375 A 1.0083877 1.0083877 0 1 0 22.1875 14.90625 C 20.907423 13.81442 19.250656 13.202914 17.46875 13.09375 A 1.0001 1.0001 0 0 0 17.375 13.0625 A 1.0001 1.0001 0 0 0 17.0625 13 C 17.04129 12.999833 17.02124 13 17 13 A 1.0001 1.0001 0 0 0 16.90625 13 z M 29 16 C 23.488666 16 19 20.488666 19 26 C 19 26.408179 19.07587 26.794885 19.125 27.1875 C 15.701198 27.639128 13 30.456824 13 34 C 13 37.853698 16.146302 41 20 41 L 41 41 C 45.958516 41 50 36.958516 50 32 C 50 27.041484 45.958516 23 41 23 C 40.125743 23 39.332972 23.266318 38.53125 23.5 C 37.402593 19.214486 33.631351 16 29 16 z M 29 18 C 33.013917 18 36.317661 20.942083 36.90625 24.78125 L 37.09375 26.0625 L 38.28125 25.5625 C 39.117664 25.208532 40.030143 25 41 25 C 44.877484 25 48 28.122516 48 32 C 48 35.877484 44.877484 39 41 39 L 20 39 C 17.227698 39 15 36.772302 15 34 C 15 31.227698 17.227698 29 20 29 C 20.0031 29 20.058 28.995 20.1875 29 L 21.5 29.0625 L 21.21875 27.78125 C 21.084972 27.199452 21 26.610112 21 26 C 21 21.569334 24.569334 18 29 18 z M 0.71875 20 A 1.0043849 1.0043849 0 0 0 1 22 L 6 22 A 1.0001 1.0001 0 1 0 6 20 L 1 20 A 1.0001 1.0001 0 0 0 0.90625 20 A 1.001098 1.001098 0 0 0 0.8125 20 A 1.0043849 1.0043849 0 0 0 0.71875 20 z M 9.125 27.75 A 1.0001 1.0001 0 0 0 9 27.78125 A 1.0001 1.0001 0 0 0 8.5 28.0625 L 4.96875 31.59375 A 1.016466 1.016466 0 1 0 6.40625 33.03125 L 9.9375 29.46875 A 1.0001 1.0001 0 0 0 9.125 27.75 z"></path>
</svg>