<?xml version="1.0" encoding="utf-8"?>
<svg xmlns="http://www.w3.org/2000/svg" viewBox="0,0,50,50" enable-background="new 0 0 50 50">
	<path style="fill:white;text-indent:0;text-align:start;line-height:normal;text-transform:none;block-progression:tb;-inkscape-font-specification:Bitstream Vera Sans" d="M 22.5 5 C 16.712628 5 12 9.7126277 12 15.5 C 12 15.672664 12.02189 15.831473 12.03125 16 C 12.02044 15.999948 12.01084 16 12 16 C 7.593562 16 4 19.593562 4 24 C 4 28.406438 7.593562 32 12 32 L 36 32 C 41.511334 32 46 27.511334 46 22 C 46 16.488666 41.511334 12 36 12 C 34.746738 12 33.573364 12.296292 32.46875 12.71875 C 31.232227 8.2969348 27.307304 5 22.5 5 z M 22.5 7 C 26.749468 7 30.233383 10.097149 30.875 14.15625 L 31.09375 15.53125 L 32.34375 14.90625 C 33.447267 14.335773 34.674653 14 36 14 C 40.430666 14 44 17.569334 44 22 C 44 26.430666 40.430666 30 36 30 L 12 30 C 8.674438 30 6 27.325562 6 24 C 6 20.674438 8.674438 18 12 18 C 12.322799 18 12.634389 18.03832 12.96875 18.09375 L 14.375 18.3125 L 14.125 16.9375 C 14.043066 16.456944 14 15.97753 14 15.5 C 14 10.793372 17.793372 7 22.5 7 z M 14.875 35 A 1.0001 1.0001 0 0 0 14.28125 35.28125 L 12.28125 37.28125 A 1.016466 1.016466 0 1 0 13.71875 38.71875 L 15.71875 36.71875 A 1.0001 1.0001 0 0 0 14.875 35 z M 33.875 35 A 1.0001 1.0001 0 0 0 33.28125 35.28125 L 31.28125 37.28125 A 1.016466 1.016466 0 1 0 32.71875 38.71875 L 34.71875 36.71875 A 1.0001 1.0001 0 0 0 33.875 35 z M 23.875 39 A 1.0001 1.0001 0 0 0 23.28125 39.28125 L 21.28125 41.28125 A 1.016466 1.016466 0 1 0 22.71875 42.71875 L 24.71875 40.71875 A 1.0001 1.0001 0 0 0 23.875 39 z" color="#000" overflow="visible" enable-background="accumulate" font-family="Bitstream Vera Sans"></path>
</svg>