<?xml version="1.0" encoding="utf-8"?>
<svg xmlns="http://www.w3.org/2000/svg" viewBox="0,0,50,50" enable-background="new 0 0 50 50">
	<path style="fill:white;text-indent:0;text-align:start;line-height:normal;text-transform:none;block-progression:tb;-inkscape-font-specification:Bitstream Vera Sans" d="M 22.5 4 C 16.712628 4 12 8.7126277 12 14.5 C 12 14.672664 12.02189 14.831473 12.03125 15 C 12.02044 14.999948 12.01084 15 12 15 C 7.593562 15 4 18.593562 4 23 C 4 27.406438 7.593562 31 12 31 L 16 31 A 1.0001 1.0001 0 1 0 16 29 L 12 29 C 8.674438 29 6 26.325562 6 23 C 6 19.674438 8.674438 17 12 17 C 12.322799 17 12.634389 17.03832 12.96875 17.09375 L 14.375 17.3125 L 14.125 15.9375 C 14.043066 15.456944 14 14.97753 14 14.5 C 14 9.7933723 17.793372 6 22.5 6 C 26.749468 6 30.233383 9.0971485 30.875 13.15625 L 31.09375 14.53125 L 32.34375 13.90625 C 33.447267 13.335773 34.674653 13 36 13 C 40.430666 13 44 16.569334 44 21 C 44 25.430666 40.430666 29 36 29 L 33 29 A 1.0001 1.0001 0 1 0 33 31 L 36 31 C 41.511334 31 46 26.511334 46 21 C 46 15.488666 41.511334 11 36 11 C 34.746738 11 33.573364 11.296292 32.46875 11.71875 C 31.232227 7.2969348 27.307304 4 22.5 4 z M 25 26 L 18 35 L 23 35 L 17.9375 43 L 29 33 L 24 33 L 31 26 L 25 26 z M 11.875 34 A 1.0001 1.0001 0 0 0 11.28125 34.28125 L 7.28125 38.28125 A 1.016466 1.016466 0 1 0 8.71875 39.71875 L 12.71875 35.71875 A 1.0001 1.0001 0 0 0 11.875 34 z M 35.875 35 A 1.0001 1.0001 0 0 0 35.28125 35.28125 L 31.28125 39.28125 A 1.016466 1.016466 0 1 0 32.71875 40.71875 L 36.71875 36.71875 A 1.0001 1.0001 0 0 0 35.875 35 z"></path>
</svg>