<?xml version="1.0" encoding="utf-8"?>
<svg xmlns="http://www.w3.org/2000/svg" viewBox="0,0,50,50" enable-background="new 0 0 50 50">
    <path style="fill:white;text-indent:0;text-align:start;line-height:normal;text-transform:none;block-progression:tb;-inkscape-font-specification:Bitstream Vera Sans" d="M 15.8125 -0.6875 L 15 0.40625 C 15 0.40625 11.264215 5.5341682 7.53125 12.28125 C 3.7982851 19.028332 0 27.355071 0 34.1875 C 0 42.915955 6.9509146 50 15.6875 50 C 24.424085 50 31.5 42.924085 31.5 34.1875 C 31.5 27.357655 27.738925 19.028211 24.03125 12.28125 C 20.323575 5.5342895 16.625 0.40625 16.625 0.40625 L 15.8125 -0.6875 z M 39 0 L 39 2 L 48 2 L 48 8 L 44 8 L 44 10 L 48 10 L 48 16 L 44 16 L 44 18 L 48 18 L 48 24 L 39 24 L 39 26 L 48 26 L 48 32 L 44 32 L 44 34 L 48 34 L 48 40 L 44 40 L 44 42 L 48 42 L 48 48 L 39 48 L 39 50 L 49 50 L 50 50 L 50 49 L 50 1 L 50 0 L 49 0 L 39 0 z M 15.8125 2.75 C 16.770203 4.113016 19.274672 7.7788453 22.28125 13.25 C 24.154022 16.657934 25.983011 20.504 27.34375 24.25 C 27.13361 24.43332 27 24.699233 27 25 C 27 25.541456 27.431444 25.982916 27.96875 26 C 28.909058 28.919375 29.5 31.728689 29.5 34.1875 C 29.5 41.850915 23.350915 48 15.6875 48 C 8.0240854 48 2 41.859045 2 34.1875 C 2 31.702934 2.626242 28.859897 3.59375 25.90625 C 3.7199586 25.963762 3.852255 26 4 26 C 4.5522847 26 5 25.552285 5 25 C 5 24.528933 4.6572539 24.168486 4.21875 24.0625 C 5.5855005 20.375832 7.4271844 16.601098 9.28125 13.25 C 12.316203 7.7645266 14.856653 4.1006426 15.8125 2.75 z M 10 24 C 9.4477153 24 9 24.447715 9 25 C 9 25.552285 9.4477153 26 10 26 C 10.552285 26 11 25.552285 11 25 C 11 24.447715 10.552285 24 10 24 z M 16 24 C 15.447715 24 15 24.447715 15 25 C 15 25.552285 15.447715 26 16 26 C 16.552285 26 17 25.552285 17 25 C 17 24.447715 16.552285 24 16 24 z M 22 24 C 21.447715 24 21 24.447715 21 25 C 21 25.552285 21.447715 26 22 26 C 22.552285 26 23 25.552285 23 25 C 23 24.447715 22.552285 24 22 24 z M 7 27 C 6.4477153 27 6 27.447715 6 28 C 6 28.552285 6.4477153 29 7 29 C 7.5522847 29 8 28.552285 8 28 C 8 27.447715 7.5522847 27 7 27 z M 13 27 C 12.447715 27 12 27.447715 12 28 C 12 28.552285 12.447715 29 13 29 C 13.552285 29 14 28.552285 14 28 C 14 27.447715 13.552285 27 13 27 z M 19 27 C 18.447715 27 18 27.447715 18 28 C 18 28.552285 18.447715 29 19 29 C 19.552285 29 20 28.552285 20 28 C 20 27.447715 19.552285 27 19 27 z M 25 27 C 24.447715 27 24 27.447715 24 28 C 24 28.552285 24.447715 29 25 29 C 25.552285 29 26 28.552285 26 28 C 26 27.447715 25.552285 27 25 27 z M 4 30 C 3.4477153 30 3 30.447715 3 31 C 3 31.552285 3.4477153 32 4 32 C 4.5522847 32 5 31.552285 5 31 C 5 30.447715 4.5522847 30 4 30 z M 10 30 C 9.4477153 30 9 30.447715 9 31 C 9 31.552285 9.4477153 32 10 32 C 10.552285 32 11 31.552285 11 31 C 11 30.447715 10.552285 30 10 30 z M 16 30 C 15.447715 30 15 30.447715 15 31 C 15 31.552285 15.447715 32 16 32 C 16.552285 32 17 31.552285 17 31 C 17 30.447715 16.552285 30 16 30 z M 22 30 C 21.447715 30 21 30.447715 21 31 C 21 31.552285 21.447715 32 22 32 C 22.552285 32 23 31.552285 23 31 C 23 30.447715 22.552285 30 22 30 z M 28 30 C 27.447715 30 27 30.447715 27 31 C 27 31.552285 27.447715 32 28 32 C 28.552285 32 29 31.552285 29 31 C 29 30.447715 28.552285 30 28 30 z M 7 33 C 6.4477153 33 6 33.447715 6 34 C 6 34.552285 6.4477153 35 7 35 C 7.5522847 35 8 34.552285 8 34 C 8 33.447715 7.5522847 33 7 33 z M 13 33 C 12.447715 33 12 33.447715 12 34 C 12 34.552285 12.447715 35 13 35 C 13.552285 35 14 34.552285 14 34 C 14 33.447715 13.552285 33 13 33 z M 19 33 C 18.447715 33 18 33.447715 18 34 C 18 34.552285 18.447715 35 19 35 C 19.552285 35 20 34.552285 20 34 C 20 33.447715 19.552285 33 19 33 z M 25 33 C 24.447715 33 24 33.447715 24 34 C 24 34.552285 24.447715 35 25 35 C 25.552285 35 26 34.552285 26 34 C 26 33.447715 25.552285 33 25 33 z M 4 36 C 3.4477153 36 3 36.447715 3 37 C 3 37.552285 3.4477153 38 4 38 C 4.5522847 38 5 37.552285 5 37 C 5 36.447715 4.5522847 36 4 36 z M 10 36 C 9.4477153 36 9 36.447715 9 37 C 9 37.552285 9.4477153 38 10 38 C 10.552285 38 11 37.552285 11 37 C 11 36.447715 10.552285 36 10 36 z M 16 36 C 15.447715 36 15 36.447715 15 37 C 15 37.552285 15.447715 38 16 38 C 16.552285 38 17 37.552285 17 37 C 17 36.447715 16.552285 36 16 36 z M 22 36 C 21.447715 36 21 36.447715 21 37 C 21 37.552285 21.447715 38 22 38 C 22.552285 38 23 37.552285 23 37 C 23 36.447715 22.552285 36 22 36 z M 28 36 C 27.447715 36 27 36.447715 27 37 C 27 37.552285 27.447715 38 28 38 C 28.552285 38 29 37.552285 29 37 C 29 36.447715 28.552285 36 28 36 z M 7 39 C 6.4477153 39 6 39.447715 6 40 C 6 40.552285 6.4477153 41 7 41 C 7.5522847 41 8 40.552285 8 40 C 8 39.447715 7.5522847 39 7 39 z M 13 39 C 12.447715 39 12 39.447715 12 40 C 12 40.552285 12.447715 41 13 41 C 13.552285 41 14 40.552285 14 40 C 14 39.447715 13.552285 39 13 39 z M 19 39 C 18.447715 39 18 39.447715 18 40 C 18 40.552285 18.447715 41 19 41 C 19.552285 41 20 40.552285 20 40 C 20 39.447715 19.552285 39 19 39 z M 25 39 C 24.447715 39 24 39.447715 24 40 C 24 40.552285 24.447715 41 25 41 C 25.552285 41 26 40.552285 26 40 C 26 39.447715 25.552285 39 25 39 z M 10 42 C 9.4477153 42 9 42.447715 9 43 C 9 43.552285 9.4477153 44 10 44 C 10.552285 44 11 43.552285 11 43 C 11 42.447715 10.552285 42 10 42 z M 16 42 C 15.447715 42 15 42.447715 15 43 C 15 43.552285 15.447715 44 16 44 C 16.552285 44 17 43.552285 17 43 C 17 42.447715 16.552285 42 16 42 z M 22 42 C 21.447715 42 21 42.447715 21 43 C 21 43.552285 21.447715 44 22 44 C 22.552285 44 23 43.552285 23 43 C 23 42.447715 22.552285 42 22 42 z M 13 45 C 12.447715 45 12 45.447715 12 46 C 12 46.552285 12.447715 47 13 47 C 13.552285 47 14 46.552285 14 46 C 14 45.447715 13.552285 45 13 45 z M 19 45 C 18.447715 45 18 45.447715 18 46 C 18 46.552285 18.447715 47 19 47 C 19.552285 47 20 46.552285 20 46 C 20 45.447715 19.552285 45 19 45 z"></path>
</svg>