<?xml version="1.0" encoding="utf-8"?>
<svg xmlns="http://www.w3.org/2000/svg" viewBox="0,0,50,50" enable-background="new 0 0 50 50">
	<path style="fill:white;text-indent:0;text-align:start;line-height:normal;text-transform:none;block-progression:tb;-inkscape-font-specification:Bitstream Vera Sans" d="M 24.8125 0 A 1.0001 1.0001 0 0 0 24.0625 0.625 L 14.0625 24.625 A 1.0001 1.0001 0 0 0 15 26 L 22.625 26 L 15.15625 48.4375 L 15.0625 48.6875 A 1.0001 1.0001 0 0 0 16.84375 49.5625 L 35.84375 20.5625 A 1.0001 1.0001 0 0 0 35 19 L 27.53125 19 L 35.40625 1.40625 A 1.0001 1.0001 0 0 0 34.5 0 L 25 0 A 1.0001 1.0001 0 0 0 24.90625 0 A 1.0001 1.0001 0 0 0 24.8125 0 z M 25.6875 2 L 32.96875 2 L 25.09375 19.59375 A 1.0001 1.0001 0 0 0 26 21 L 33.125 21 L 19.375 42 L 24.9375 25.3125 A 1.0001 1.0001 0 0 0 24 24 L 16.5 24 L 25.6875 2 z" color="#000" overflow="visible" enable-background="accumulate" font-family="Bitstream Vera Sans"></path>
</svg>