<?xml version="1.0" encoding="utf-8"?>
<svg xmlns="http://www.w3.org/2000/svg" viewBox="0,0,50,50" enable-background="new 0 0 50 50">
	<path style="fill:white;text-indent:0;text-align:start;line-height:normal;text-transform:none;block-progression:tb;-inkscape-font-specification:Bitstream Vera Sans" d="M 39 0 L 39 2 L 48 2 L 48 8 L 44 8 L 44 10 L 48 10 L 48 16 L 44 16 L 44 18 L 48 18 L 48 24 L 39 24 L 39 26 L 48 26 L 48 32 L 44 32 L 44 34 L 48 34 L 48 40 L 44 40 L 44 42 L 48 42 L 48 48 L 39 48 L 39 50 L 49 50 L 50 50 L 50 49 L 50 1 L 50 0 L 49 0 L 39 0 z M 10 7 C 10 12.73171 9.6313576 16.22977 9.09375 18.59375 C 8.5561424 20.95773 7.8746918 22.194313 7.125 23.5625 C 6.3753082 24.930687 5.5563681 26.429171 4.96875 29 C 4.4701961 31.181173 4.1258695 34.212039 4.03125 38.59375 L 1.71875 36.28125 L 0.28125 37.71875 L 4.28125 41.71875 L 5 42.40625 L 5.71875 41.71875 L 9.71875 37.71875 L 8.28125 36.28125 L 6.03125 38.53125 C 6.1257601 34.307857 6.4544544 31.445356 6.90625 29.46875 C 7.4436319 27.117704 8.1246918 25.900563 8.875 24.53125 C 9.6253082 23.161937 10.443858 21.614145 11.03125 19.03125 C 11.618642 16.448355 12 12.81829 12 7 L 10 7 z M 21 7 C 21 12.73171 20.631358 16.22977 20.09375 18.59375 C 19.556142 20.95773 18.874692 22.194313 18.125 23.5625 C 17.375308 24.930687 16.556368 26.429171 15.96875 29 C 15.470196 31.181173 15.12587 34.212039 15.03125 38.59375 L 12.71875 36.28125 L 11.28125 37.71875 L 15.28125 41.71875 L 16 42.40625 L 16.71875 41.71875 L 20.71875 37.71875 L 19.28125 36.28125 L 17.03125 38.53125 C 17.12576 34.307857 17.454454 31.445356 17.90625 29.46875 C 18.443632 27.117704 19.124692 25.900563 19.875 24.53125 C 20.625308 23.161937 21.443858 21.614145 22.03125 19.03125 C 22.618642 16.448355 23 12.81829 23 7 L 21 7 z M 32 7 C 32 12.73171 31.631358 16.22977 31.09375 18.59375 C 30.556142 20.95773 29.874692 22.194313 29.125 23.5625 C 28.375308 24.930687 27.556368 26.429171 26.96875 29 C 26.470196 31.181173 26.12587 34.212039 26.03125 38.59375 L 23.71875 36.28125 L 22.28125 37.71875 L 26.28125 41.71875 L 27 42.40625 L 27.71875 41.71875 L 31.71875 37.71875 L 30.28125 36.28125 L 28.03125 38.53125 C 28.12576 34.307857 28.454454 31.445356 28.90625 29.46875 C 29.443632 27.117704 30.124692 25.900563 30.875 24.53125 C 31.625308 23.161937 32.443858 21.614145 33.03125 19.03125 C 33.618642 16.448355 34 12.81829 34 7 L 32 7 z"></path>
</svg>