<?xml version="1.0" encoding="utf-8"?>
<svg xmlns="http://www.w3.org/2000/svg" viewBox="0,0,50,50" enable-background="new 0 0 50 50">
	<path style="fill:white;text-indent:0;text-align:start;line-height:normal;text-transform:none;block-progression:tb;-inkscape-font-specification:Bitstream Vera Sans" d="M 8 -0.15625 L 7.1875 0.90625 C 7.1875 0.90625 5.4072745 3.2513833 3.625 6.28125 C 1.8427255 9.3111167 0 12.951282 0 16 C 0 20.429915 3.5700855 24 8 24 C 12.429915 24 16 20.429915 16 16 C 16 12.951282 14.157275 9.3111167 12.375 6.28125 C 10.592725 3.2513833 8.8125 0.90625 8.8125 0.90625 L 8 -0.15625 z M 8 3.3125 C 8.5446801 4.0633365 9.3098913 5.0768151 10.625 7.3125 C 12.342725 10.232633 14 13.848718 14 16 C 14 19.370085 11.370085 22 8 22 C 4.6299145 22 2 19.370085 2 16 C 2 13.848718 3.6572745 10.232633 5.375 7.3125 C 6.6901087 5.0768151 7.4553199 4.0633365 8 3.3125 z M 42 8.9375 L 41.21875 10 C 41.21875 10 39.407886 12.338314 37.625 15.34375 C 35.842114 18.349186 34 21.951282 34 25 C 34 29.429915 37.570085 33 42 33 C 46.429915 33 50 29.429915 50 25 C 50 21.951282 48.157886 18.349186 46.375 15.34375 C 44.592114 12.338314 42.78125 10 42.78125 10 L 42 8.9375 z M 42 12.40625 C 42.538701 13.140596 43.302849 14.146232 44.625 16.375 C 46.342114 19.269564 48 22.848718 48 25 C 48 28.370085 45.370085 31 42 31 C 38.629915 31 36 28.370085 36 25 C 36 22.848718 37.657886 19.269564 39.375 16.375 C 40.697151 14.146232 41.461299 13.140596 42 12.40625 z M 22 25.84375 L 21.1875 26.90625 C 21.1875 26.90625 19.407275 29.251383 17.625 32.28125 C 15.842725 35.311117 14 38.951282 14 42 C 14 46.429915 17.570085 50 22 50 C 26.429915 50 30 46.429915 30 42 C 30 38.951282 28.157275 35.311117 26.375 32.28125 C 24.592725 29.251383 22.8125 26.90625 22.8125 26.90625 L 22 25.84375 z M 22 29.3125 C 22.54468 30.063336 23.309891 31.076815 24.625 33.3125 C 26.342725 36.232633 28 39.848718 28 42 C 28 45.370085 25.370085 48 22 48 C 18.629915 48 16 45.370085 16 42 C 16 39.848718 17.657275 36.232633 19.375 33.3125 C 20.690109 31.076815 21.45532 30.063336 22 29.3125 z" color="#000" overflow="visible" enable-background="accumulate" font-family="Bitstream Vera Sans"></path>
</svg>