<?xml version="1.0" encoding="utf-8"?>
<svg xmlns="http://www.w3.org/2000/svg" viewBox="0,0,50,50" enable-background="new 0 0 50 50">
	<path style="fill:white;text-indent:0;text-align:start;line-height:normal;text-transform:none;block-progression:tb;-inkscape-font-specification:Bitstream Vera Sans" d="M 24.90625 -0.03125 A 1.0001 1.0001 0 0 0 24.78125 0 A 1.0001 1.0001 0 0 0 24 1 L 24 17.0625 L 18.8125 11.90625 A 1.0001 1.0001 0 0 0 18 11.59375 A 1.0001 1.0001 0 0 0 17.40625 13.3125 L 24.28125 20.21875 L 25 20.90625 L 25.71875 20.21875 L 32.59375 13.3125 A 1.0001 1.0001 0 1 0 31.1875 11.90625 L 26 17.0625 L 26 1 A 1.0001 1.0001 0 0 0 24.90625 -0.03125 z M 24.90625 27.96875 A 1.0001 1.0001 0 0 0 24.78125 28 A 1.0001 1.0001 0 0 0 24 29 L 24 35 A 1.0001 1.0001 0 1 0 26 35 L 26 29 A 1.0001 1.0001 0 0 0 24.90625 27.96875 z M 10.6875 33.875 A 1.0001 1.0001 0 0 0 10.1875 35.59375 L 14.40625 39.8125 A 1.0001 1.0001 0 1 0 15.8125 38.40625 L 11.59375 34.1875 A 1.0001 1.0001 0 0 0 10.875 33.875 A 1.0001 1.0001 0 0 0 10.78125 33.875 A 1.0001 1.0001 0 0 0 10.6875 33.875 z M 39 33.875 A 1.0001 1.0001 0 0 0 38.40625 34.1875 L 34.1875 38.40625 A 1.0001 1.0001 0 1 0 35.59375 39.8125 L 39.8125 35.59375 A 1.0001 1.0001 0 0 0 39.09375 33.875 A 1.0001 1.0001 0 0 0 39 33.875 z M 24.90625 39 A 1.0001 1.0001 0 0 0 24.8125 39.03125 A 1.0001 1.0001 0 0 0 24.625 39.0625 A 1.0001 1.0001 0 0 0 24.59375 39.09375 C 19.594986 39.304937 15.550235 43.087519 15.0625 48 L 1 48 A 1.0001 1.0001 0 0 0 0.90625 48 A 1.001098 1.001098 0 0 0 1 50 L 15.8125 50 L 49 50 A 1.0001 1.0001 0 0 0 49.28125 49.96875 A 1.0001 1.0001 0 0 0 49.71875 49.71875 A 1.0001 1.0001 0 0 0 49.78125 49.625 A 1.0001 1.0001 0 0 0 49.84375 49.5625 A 1.0001 1.0001 0 0 0 49.90625 49.46875 A 1.0001 1.0001 0 0 0 50 49.09375 A 1.0001 1.0001 0 0 0 50 48.875 A 1.0001 1.0001 0 0 0 49.84375 48.4375 A 1.0001 1.0001 0 0 0 49.78125 48.34375 A 1.0001 1.0001 0 0 0 49.6875 48.28125 A 1.0001 1.0001 0 0 0 49.53125 48.15625 A 1.0001 1.0001 0 0 0 49.15625 48 A 1.0001 1.0001 0 0 0 49 48 L 34.9375 48 C 34.453474 43.106086 30.439642 39.33468 25.46875 39.09375 C 25.43511 39.09215 25.40873 39.0638 25.375 39.0625 A 1.0001 1.0001 0 0 0 25.0625 39 A 1.0001 1.0001 0 0 0 25 39 A 1.0001 1.0001 0 0 0 24.90625 39 z M 24.9375 41 A 1.0001 1.0001 0 0 0 25 41 C 25.03221 41 25.06164 40.999633 25.09375 41 C 29.17451 41.046577 32.456319 44.051297 32.9375 48 L 17.0625 48 C 17.545863 44.042161 20.842669 41.031154 24.9375 41 z"></path>
</svg>