<?xml version="1.0" encoding="utf-8"?>
<svg xmlns="http://www.w3.org/2000/svg" viewBox="0,0,50,50" enable-background="new 0 0 50 50">
    <path style="fill:white;text-indent:0;text-align:start;line-height:normal;text-transform:none;block-progression:tb;-inkscape-font-specification:Bitstream Vera Sans" d="M 25 0 C 23.469917 0 22.01289 0.33273749 20.875 1.15625 C 19.73711 1.9797625 19 3.3491873 19 5 L 19 9.6875 A 1.001098 1.001098 0 0 0 19 10.28125 L 19 27.6875 C 15.431176 29.766164 13 33.578851 13 38 C 13 44.615466 18.384534 50 25 50 C 31.615466 50 37 44.615466 37 38 C 37 33.578851 34.568824 29.766164 31 27.6875 L 31 27 L 34 27 A 1.0001 1.0001 0 1 0 34 25 L 31 25 L 31 23 L 34 23 A 1.0001 1.0001 0 1 0 34 21 L 31 21 L 31 19 L 34 19 A 1.0001 1.0001 0 1 0 34 17 L 31 17 L 31 15 L 34 15 A 1.0001 1.0001 0 1 0 34 13 L 31 13 L 31 11 L 34 11 A 1.0001 1.0001 0 1 0 34 9 L 31 9 L 31 5 C 31 3.349308 30.262813 1.9798205 29.125 1.15625 C 27.987187 0.33267949 26.530529 0 25 0 z M 25 2 C 26.231471 2 27.265813 2.2950705 27.9375 2.78125 C 28.609187 3.2674295 29 3.889692 29 5 L 29 9 L 21 9 L 21 5 C 21 3.8898127 21.39064 3.2674875 22.0625 2.78125 C 22.73436 2.2950125 23.769083 2 25 2 z M 21 11 L 29 11 L 29 13.6875 A 1.001098 1.001098 0 0 0 29 14.28125 L 29 17.53125 A 1.0043849 1.0043849 0 0 0 29 18.40625 L 29 21.53125 A 1.0043849 1.0043849 0 0 0 29 22.40625 L 29 25.53125 A 1.0043849 1.0043849 0 0 0 29 26.40625 L 29 28.21875 A 1.0001 1.0001 0 0 0 29.53125 29.09375 C 32.766984 30.749348 35 34.107841 35 38 C 35 43.534534 30.534534 48 25 48 C 19.465466 48 15 43.534534 15 38 C 15 34.107841 17.233016 30.749348 20.46875 29.09375 A 1.0001 1.0001 0 0 0 21 28.21875 L 21 11 z"></path>
</svg>