<?xml version="1.0" encoding="utf-8"?>
<svg xmlns="http://www.w3.org/2000/svg" viewBox="0,0,50,50" enable-background="new 0 0 50 50">
	<path style="fill:white;text-indent:0;text-align:start;line-height:normal;text-transform:none;block-progression:tb;-inkscape-font-specification:Bitstream Vera Sans" d="M 6.28125 0 C 4.5071702 0.073691175 2.9149067 1.0344369 1.8125 2.4375 C 0.66452948 3.8985534 0 5.8546876 0 8 C 0 10.145312 0.66452948 12.101447 1.8125 13.5625 C 2.9604705 15.023553 4.6373005 16 6.5 16 C 8.3626995 16 10.039529 15.023553 11.1875 13.5625 C 12.151687 12.335354 12.762687 10.744399 12.9375 9 L 17.0625 9 C 17.561017 12.933201 20.935134 16 25 16 C 29.064866 16 32.438983 12.933201 32.9375 9 L 37.0625 9 C 37.237313 10.744399 37.848313 12.335354 38.8125 13.5625 C 39.921416 14.973847 41.525771 15.936372 43.3125 16 C 43.375426 16.002241 43.43663 16 43.5 16 C 45.362699 16 47.039529 15.023553 48.1875 13.5625 C 49.335471 12.101447 50 10.145312 50 8 C 50 5.8546876 49.335471 3.8985534 48.1875 2.4375 C 47.039529 0.97644661 45.362699 0 43.5 0 C 43.43663 0 43.375426 -0.002240917 43.3125 0 A 1.0043849 1.0043849 0 0 0 43.1875 0 C 43.166154 0.0012659125 43.14629 0.029729669 43.125 0.03125 C 41.414667 0.15338323 39.882066 1.0762351 38.8125 2.4375 C 37.848313 3.6646466 37.237313 5.2556012 37.0625 7 L 32.9375 7 C 32.438983 3.0667983 29.064866 0 25 0 C 20.935134 0 17.561017 3.0667983 17.0625 7 L 12.9375 7 C 12.762687 5.2556012 12.151687 3.6646466 11.1875 2.4375 C 10.039529 0.9764466 8.3626995 0 6.5 0 C 6.4683149 0 6.4378258 -0.00056265005 6.40625 0 A 1.001098 1.001098 0 0 0 6.28125 0 z M 6.34375 2 A 1.001098 1.001098 0 0 0 6.5 2 C 6.4809524 2 6.5369268 1.974426 6.71875 2.1875 C 6.9005732 2.400574 7.1461812 2.8207099 7.34375 3.375 C 7.7388875 4.4835803 8 6.1440171 8 8 C 8 9.8559829 7.7388875 11.51642 7.34375 12.625 C 7.1461812 13.17929 6.9005732 13.599426 6.71875 13.8125 C 6.6278384 13.919037 6.5655905 13.979759 6.53125 14 C 6.520829 14.000092 6.5104366 14 6.5 14 C 5.3251334 14 4.248888 13.416198 3.40625 12.34375 C 2.563612 11.271302 2 9.7206807 2 8 C 2 6.2793192 2.563612 4.7286983 3.40625 3.65625 C 4.2114612 2.6314358 5.2296927 2.0493777 6.34375 2 z M 25 2 C 28.325553 2 31 4.674447 31 8 C 31 11.325553 28.325553 14 25 14 C 21.674447 14 19 11.325553 19 8 C 19 4.674447 21.674447 2 25 2 z M 43.34375 2 A 1.0043849 1.0043849 0 0 0 43.5 2 C 43.510437 2 43.520829 1.9999079 43.53125 2 C 43.565591 2.0202408 43.62784 2.080963 43.71875 2.1875 C 43.900573 2.400574 44.146181 2.8207099 44.34375 3.375 C 44.738888 4.4835803 45 6.1440171 45 8 C 45 9.8559829 44.738888 11.51642 44.34375 12.625 C 44.146181 13.17929 43.900573 13.599426 43.71875 13.8125 C 43.627838 13.919037 43.565591 13.979759 43.53125 14 C 43.520829 14.000092 43.510437 14 43.5 14 C 43.46869 14 43.437417 14.000827 43.40625 14 C 42.267903 13.969779 41.226432 13.387618 40.40625 12.34375 C 39.563612 11.271302 39 9.7206807 39 8 C 39 6.2793192 39.563612 4.7286983 40.40625 3.65625 C 41.211461 2.6314358 42.229692 2.0493777 43.34375 2 z M 9.46875 3.53125 C 9.5070922 3.576954 9.5563179 3.6086092 9.59375 3.65625 C 10.436388 4.7286983 11 6.2793192 11 8 C 11 9.7206807 10.436388 11.271302 9.59375 12.34375 C 9.5563179 12.391391 9.5070922 12.423046 9.46875 12.46875 C 9.8083586 11.19168 10 9.6617555 10 8 C 10 6.3382444 9.8083586 4.8083199 9.46875 3.53125 z M 46.46875 3.53125 C 46.507092 3.576954 46.556318 3.6086092 46.59375 3.65625 C 47.436388 4.7286983 48 6.2793192 48 8 C 48 9.7206807 47.436388 11.271302 46.59375 12.34375 C 46.556318 12.391391 46.507092 12.423046 46.46875 12.46875 C 46.808358 11.19168 47 9.6617555 47 8 C 47 6.3382444 46.808358 4.8083199 46.46875 3.53125 z M 24 17 L 24 26 L 10 26 C 8.3545455 26 7 27.354545 7 29 L 7 47 C 7 48.645455 8.3545455 50 10 50 L 40 50 C 41.645455 50 43 48.645455 43 47 L 43 29 C 43 27.354545 41.645455 26 40 26 L 26 26 L 26 17 L 24 17 z M 10 28 L 40 28 C 40.554545 28 41 28.445455 41 29 L 41 47 C 41 47.554545 40.554545 48 40 48 L 10 48 C 9.4454545 48 9 47.554545 9 47 L 9 29 C 9 28.445455 9.4454545 28 10 28 z M 11.8125 30 A 1.0001 1.0001 0 0 0 11 31 L 11 41 A 1.0001 1.0001 0 0 0 12 42 L 38 42 A 1.0001 1.0001 0 0 0 39 41 L 39 31 A 1.0001 1.0001 0 0 0 38 30 L 12 30 A 1.0001 1.0001 0 0 0 11.90625 30 A 1.0001 1.0001 0 0 0 11.8125 30 z M 13 32 L 37 32 L 37 40 L 13 40 L 13 32 z"></path>
</svg>